<svg width="420" height="190" viewBox="0 0 420 190" fill="none" xmlns="http://www.w3.org/2000/svg" role="img" aria-label="Senac">
  <path d="M231 9C289 14 342 34 391 65C319 58 257 67 204 95C200 64 210 35 231 9Z" fill="white" opacity="0.98"/>
  <path d="M195 28C157 46 126 70 101 100C121 111 141 126 159 143C157 96 170 57 195 28Z" fill="white" opacity="0.92"/>
  <path d="M216 14C189 38 174 75 172 128C211 94 272 70 376 64C325 33 272 16 216 14Z" fill="white" opacity="0.9"/>
  <text x="12" y="175" fill="white" font-family="Arial, Helvetica, sans-serif" font-size="95" font-weight="800" letter-spacing="-8">Senac</text>
</svg>
